<svg width="400" height="1018" viewBox="0 0 400 1018" fill="none" xmlns="http://www.w3.org/2000/svg">
<rect y="133.679" width="400" height="750" rx="20" fill="#D9D9D9"/>
<path d="M388 166.679L11 330.179V559.679L388 388.679V166.679Z" fill="url(#paint0_linear_1459_17)"/>
<path d="M388 436.679L11 600.179V829.679L388 658.679V436.679Z" fill="url(#paint1_linear_1459_17)"/>
<path d="M0 53.0809C0 44.4782 5.50352 36.8209 13.6914 34.1815C154.412 -11.1795 240.682 -11.6267 386.174 34.2393C394.427 36.841 400 44.5322 400 53.1855V88.6779C400 99.7236 391.046 108.678 380 108.678H20C8.95431 108.678 0 99.7235 0 88.6779V53.0809Z" fill="#D9D9D9"/>
<path d="M400 964.276C400 972.878 394.496 980.536 386.309 983.175C245.588 1028.54 159.318 1028.98 13.8258 983.117C5.57283 980.515 0 972.824 0 964.171V928.679C0 917.633 8.95431 908.679 20 908.679H380C391.046 908.679 400 917.633 400 928.679V964.276Z" fill="#D9D9D9"/>
<defs>
<linearGradient id="paint0_linear_1459_17" x1="199.5" y1="166.679" x2="199.5" y2="559.679" gradientUnits="userSpaceOnUse">
<stop stop-color="#FB4646"/>
<stop offset="1" stop-color="#B60707"/>
</linearGradient>
<linearGradient id="paint1_linear_1459_17" x1="199.5" y1="436.679" x2="199.5" y2="829.679" gradientUnits="userSpaceOnUse">
<stop stop-color="#684EFF"/>
<stop offset="1" stop-color="#1C02AF"/>
</linearGradient>
</defs>
</svg>
