<?xml version="1.0" standalone="no"?>
<!DOCTYPE svg PUBLIC "-//W3C//DTD SVG 20010904//EN"
 "http://www.w3.org/TR/2001/REC-SVG-20010904/DTD/svg10.dtd">
<svg version="1.0" xmlns="http://www.w3.org/2000/svg"
 width="512.000000pt" height="512.000000pt" viewBox="0 0 512.000000 512.000000"
 preserveAspectRatio="xMidYMid meet">

<g transform="translate(0.000000,512.000000) scale(0.100000,-0.100000)"
fill="#000000" stroke="#FFFFFF">
<path d="M1310 5094 c-202 -32 -451 -137 -490 -206 -13 -24 -13 -30 3 -62 27
-57 56 -58 157 -4 47 26 126 60 175 78 172 60 170 60 1390 60 748 0 1139 -4
1200 -11 241 -30 444 -128 616 -299 123 -122 202 -247 255 -404 45 -131 54
-211 54 -472 l0 -244 -2110 0 -2110 0 0 249 c0 262 8 335 50 461 31 96 94 215
155 299 59 79 64 94 39 129 -21 31 -58 44 -89 32 -37 -14 -119 -130 -185 -265
-106 -213 -133 -379 -128 -777 3 -231 4 -238 26 -260 18 -19 36 -23 98 -26
l75 -4 -7 -31 c-9 -43 -6 -124 6 -146 8 -17 3 -20 -50 -30 -199 -39 -376 -215
-425 -422 -57 -244 65 -506 289 -618 65 -33 162 -61 208 -61 l28 0 0 -190 0
-189 -37 -6 c-132 -21 -234 -74 -316 -164 -216 -241 -139 -620 155 -765 57
-29 94 -39 173 -49 l100 -12 7 -56 c19 -153 102 -308 228 -427 l45 -43 -182 3
c-201 3 -212 6 -260 78 -21 30 -23 45 -23 155 0 109 -2 125 -21 149 -26 33
-79 36 -110 5 -20 -20 -21 -29 -17 -172 3 -134 6 -157 26 -194 35 -66 78 -110
140 -140 l57 -28 2020 -3 c2278 -3 2081 -9 2176 76 28 25 62 68 77 96 l27 51
5 286 5 287 61 45 c178 131 234 391 125 582 -65 114 -190 203 -316 226 -33 6
-70 13 -82 15 -23 4 -23 5 -23 193 l0 188 55 7 c318 37 543 362 470 675 -49
207 -226 383 -425 422 -53 10 -58 13 -50 30 12 22 15 103 6 146 l-7 31 75 4
c62 3 80 7 98 26 22 22 23 29 26 260 4 271 -8 419 -43 557 -27 107 -100 270
-164 363 -188 278 -488 467 -818 517 -139 21 -2362 20 -2493 -1z m3149 -1750
c26 -21 31 -33 31 -69 0 -60 -29 -86 -116 -102 -76 -14 -127 -45 -164 -100
l-25 -37 -5 -535 c-3 -295 -7 -537 -8 -538 -1 -1 -9 -9 -18 -17 -20 -21 -63
-20 -86 1 -16 15 -18 36 -18 227 -1 226 -6 258 -53 320 -47 61 -154 92 -232
66 -49 -16 -104 -66 -126 -115 -17 -37 -19 -77 -19 -502 0 -450 -1 -464 -20
-483 -26 -26 -64 -26 -90 0 -20 20 -20 33 -20 653 0 711 3 676 -77 748 -83 75
-207 72 -285 -8 -54 -55 -68 -97 -68 -203 0 -77 -3 -93 -20 -110 -23 -23 -58
-26 -86 -6 -18 13 -19 31 -24 248 l-5 233 -28 48 c-33 55 -83 92 -147 106 -29
7 -403 11 -1056 11 l-1011 0 -27 26 c-39 40 -37 103 5 138 l31 26 1868 0 1868
0 31 -26z m-567 -1311 c4 -117 16 -152 66 -198 42 -39 102 -58 170 -53 74 5
129 34 167 87 24 34 30 54 33 111 l4 70 44 0 44 0 0 -185 0 -185 -70 0 c-57 0
-74 -4 -90 -20 -26 -26 -26 -80 0 -108 19 -21 30 -22 158 -22 230 0 332 -28
407 -112 55 -60 77 -118 78 -202 1 -123 -67 -228 -177 -278 -76 -34 -182 -32
-260 5 -71 33 -88 34 -119 5 -19 -18 -28 -44 -40 -108 -43 -227 -216 -409
-437 -461 -174 -40 -365 7 -510 126 -31 25 -65 45 -79 45 -15 0 -43 -20 -80
-56 -69 -69 -133 -102 -209 -110 -131 -14 -246 53 -307 180 -19 41 -42 77 -51
80 -41 16 -70 5 -123 -45 -73 -70 -145 -101 -242 -107 -90 -5 -148 11 -230 63
-57 36 -95 43 -121 23 -9 -7 -33 -49 -54 -93 -29 -59 -57 -98 -109 -151 -229
-230 -591 -230 -820 0 -100 101 -165 244 -165 366 0 58 -16 114 -37 131 -11
10 -58 16 -147 20 -111 4 -138 9 -176 28 -69 36 -97 61 -135 115 -137 201 -33
467 204 522 45 11 327 14 1459 14 l1402 0 0 -35 c0 -111 91 -196 210 -196 129
-1 220 83 220 204 l0 27 79 0 c74 0 81 2 100 26 27 34 27 78 1 104 -17 17 -33
20 -100 20 l-80 0 0 230 0 230 59 0 59 0 4 -107z m-552 -168 l0 -185 -1320 0
-1320 0 0 185 0 185 1320 0 1320 0 0 -185z m1233 -1103 l88 -5 -3 -241 c-3
-277 -8 -293 -88 -334 l-44 -22 -1365 0 -1364 0 60 60 c34 33 78 86 99 117 20
32 39 60 40 62 2 2 9 -1 16 -6 27 -20 102 -44 173 -54 106 -14 190 1 298 55
l89 45 58 -63 c100 -107 212 -152 359 -144 102 6 174 32 250 89 l53 40 37 -24
c61 -41 132 -74 211 -98 107 -34 292 -34 400 0 150 46 273 127 364 237 59 72
117 180 138 257 9 36 16 46 28 41 8 -4 55 -9 103 -12z"/>
<path d="M1696 4649 c-54 -43 -24 -132 45 -132 67 0 97 85 45 130 -33 28 -56
29 -90 2z"/>
<path d="M2530 4657 c-54 -27 -48 -113 10 -137 23 -9 34 -9 58 4 49 25 57 81
17 121 -27 28 -48 31 -85 12z"/>
<path d="M3346 4649 c-54 -43 -24 -132 44 -132 68 0 98 89 44 132 -15 12 -34
21 -44 21 -10 0 -29 -9 -44 -21z"/>
<path d="M1275 4205 c-50 -49 -20 -125 49 -125 69 0 99 88 45 133 -30 24 -66
21 -94 -8z"/>
<path d="M2112 4223 c-21 -8 -44 -62 -36 -86 12 -39 35 -57 75 -57 45 0 69 27
69 76 0 51 -58 87 -108 67z"/>
<path d="M2926 4209 c-18 -14 -26 -30 -26 -53 0 -49 24 -76 69 -76 61 0 95 55
67 108 -24 47 -66 55 -110 21z"/>
<path d="M3751 4213 c-54 -45 -24 -133 45 -133 69 0 99 76 49 125 -28 29 -64
32 -94 8z"/>
</g>
</svg>
