<?xml version="1.0" standalone="no"?>
<!DOCTYPE svg PUBLIC "-//W3C//DTD SVG 20010904//EN"
 "http://www.w3.org/TR/2001/REC-SVG-20010904/DTD/svg10.dtd">
<svg version="1.0" xmlns="http://www.w3.org/2000/svg"
 width="512.000000pt" height="512.000000pt" viewBox="0 0 512.000000 512.000000"
 preserveAspectRatio="xMidYMid meet">

<g transform="translate(0.000000,512.000000) scale(0.100000,-0.100000)"
fill="#000000" stroke="none">
<path d="M2795 5104 c-128 -24 -294 -84 -556 -202 -306 -138 -412 -173 -540
-179 -125 -7 -169 11 -228 91 -80 108 -189 123 -271 37 -87 -92 -172 -286
-185 -427 -8 -80 8 -205 34 -274 13 -33 15 -53 8 -75 -5 -17 -9 -84 -10 -150
-1 -178 35 -329 123 -505 42 -84 124 -277 165 -389 22 -59 34 -77 62 -93 l34
-21 -4 -131 c-7 -212 -45 -537 -102 -870 -38 -217 -41 -279 -21 -398 13 -82
29 -108 77 -128 23 -10 81 -8 108 3 2 1 18 -41 36 -93 18 -52 40 -112 50 -134
9 -21 14 -40 12 -42 -2 -3 -219 -88 -482 -190 -263 -101 -505 -199 -539 -217
-160 -85 -280 -272 -301 -469 -12 -112 26 -191 110 -229 38 -18 91 -19 1038
-19 l998 0 24 25 c34 33 33 77 -1 104 -27 21 -30 21 -1010 21 -1120 0 -1020
-9 -1008 89 18 150 112 289 240 354 68 34 883 349 893 345 5 -2 37 -45 71 -95
137 -207 343 -364 578 -443 486 -163 1020 19 1303 443 34 51 65 93 70 95 16 6
873 -331 924 -363 117 -74 192 -196 210 -341 12 -92 107 -84 -1011 -84 l-985
0 -24 -25 c-32 -31 -32 -69 0 -100 l24 -25 998 0 999 0 44 23 c26 13 57 40 75
65 28 40 30 50 29 125 -1 97 -22 176 -72 271 -45 86 -146 189 -227 233 -33 17
-275 115 -539 217 -263 102 -480 187 -482 189 -3 2 9 37 25 78 16 41 38 102
48 137 14 48 21 61 33 55 74 -33 148 3 168 82 30 119 26 214 -17 470 -23 132
-50 328 -61 435 -11 107 -25 220 -30 251 -6 30 -10 108 -10 172 0 113 1 118
23 126 33 13 55 42 76 102 32 93 108 273 154 365 54 108 89 204 111 304 20 91
12 126 -34 143 -30 11 -30 12 -30 93 0 45 -2 88 -5 96 -3 7 7 20 24 29 45 26
47 61 11 136 -35 71 -107 149 -174 188 l-44 26 -4 92 c-5 109 -37 187 -111
279 -97 118 -312 253 -483 303 -114 34 -289 42 -409 19z m-450 -1169 c187 -57
269 -70 371 -56 105 15 214 14 314 -4 47 -8 112 -15 146 -15 74 0 194 29 263
64 50 26 50 26 61 5 35 -64 40 -147 40 -699 0 -322 -4 -550 -9 -555 -5 -6 -24
-45 -41 -89 -17 -43 -45 -99 -62 -124 -39 -57 -57 -105 -58 -156 l0 -39 -48 5
c-73 7 -144 45 -287 153 -164 124 -216 149 -310 149 -58 0 -79 -5 -118 -26
l-47 -27 -47 27 c-39 22 -61 27 -113 27 -87 0 -161 -36 -310 -149 -134 -102
-212 -145 -281 -153 -54 -6 -54 -7 -64 69 -4 30 -21 69 -47 110 -23 35 -54 97
-70 138 -16 41 -33 79 -39 85 -5 5 -9 222 -9 535 l0 527 61 17 c64 17 126 55
169 101 39 42 116 95 168 116 76 31 184 21 367 -36z m257 -1840 c178 -121 345
-183 523 -194 l100 -7 -86 -86 c-143 -142 -300 -202 -426 -164 -118 36 -150
41 -200 29 -27 -6 -74 -19 -106 -29 -126 -38 -283 22 -426 164 l-86 86 106 7
c161 11 364 85 504 183 28 19 52 35 55 35 3 1 22 -10 42 -24z m-402 -1393
c110 -52 317 -122 360 -122 44 0 263 74 366 125 51 24 128 69 173 98 66 45 83
52 92 41 6 -8 29 -19 51 -26 l39 -11 -33 -35 c-101 -105 -295 -215 -453 -254
-128 -32 -342 -32 -470 0 -158 39 -352 149 -453 254 l-33 35 39 11 c22 7 45
18 51 26 9 11 26 4 94 -42 45 -30 125 -75 177 -100z"/>
</g>
</svg>
