<svg width="1075" height="795" viewBox="0 0 1075 795" fill="none" xmlns="http://www.w3.org/2000/svg">
<rect x="3.02652" y="145.979" width="293.322" height="580.459" rx="17.5" transform="rotate(-13.8735 3.02652 145.979)" fill="#01E573" stroke="#18371F" stroke-width="5"/>
<path d="M182.126 438.891L163.95 349.818L169.656 348.653L187.833 437.727L182.126 438.891ZM188.609 372.62C187.472 369.18 185.22 366.788 181.854 365.445C178.487 364.103 174.646 363.872 170.332 364.752C167.177 365.396 164.521 366.47 162.363 367.973C160.229 369.472 158.683 371.249 157.725 373.305C156.79 375.356 156.555 377.518 157.019 379.792C157.407 381.694 158.193 383.237 159.377 384.421C160.579 385.577 161.992 386.46 163.615 387.071C165.233 387.659 166.89 388.082 168.585 388.341C170.276 388.575 171.818 388.732 173.211 388.81L180.846 389.282C182.801 389.39 185.003 389.641 187.452 390.036C189.923 390.426 192.354 391.15 194.745 392.208C197.154 393.239 199.277 394.763 201.114 396.78C202.951 398.797 204.211 401.476 204.892 404.816C205.678 408.667 205.379 412.352 203.995 415.872C202.635 419.387 200.216 422.454 196.739 425.072C193.286 427.686 188.822 429.551 183.348 430.668C178.245 431.71 173.658 431.788 169.587 430.903C165.54 430.013 162.148 428.313 159.413 425.803C156.701 423.288 154.808 420.11 153.735 416.27L162.642 414.452C163.423 417.096 164.782 419.138 166.719 420.579C168.675 421.992 170.958 422.879 173.569 423.241C176.198 423.574 178.927 423.452 181.757 422.874C185.051 422.202 187.9 421.065 190.303 419.463C192.702 417.838 194.47 415.907 195.608 413.669C196.742 411.408 197.043 408.979 196.513 406.381C196.03 404.015 194.977 402.224 193.351 401.01C191.726 399.795 189.74 398.944 187.394 398.456C185.047 397.968 182.55 397.632 179.903 397.448L170.624 396.732C164.73 396.267 159.857 394.882 156.003 392.575C152.15 390.269 149.733 386.715 148.753 381.913C147.939 377.923 148.308 374.224 149.859 370.815C151.429 367.377 153.878 364.461 157.207 362.066C160.555 359.644 164.502 357.968 169.048 357.041C173.641 356.103 177.892 356.094 181.8 357.012C185.703 357.907 188.988 359.556 191.653 361.96C194.341 364.359 196.11 367.345 196.96 370.916L188.609 372.62ZM244.608 426.141L226.432 337.067L232.138 335.903L250.314 424.977L244.608 426.141ZM251.091 359.87C249.954 356.43 247.702 354.038 244.336 352.695C240.969 351.353 237.128 351.122 232.814 352.002C229.659 352.646 227.003 353.719 224.845 355.223C222.711 356.722 221.164 358.499 220.207 360.555C219.272 362.606 219.037 364.768 219.501 367.041C219.889 368.944 220.675 370.487 221.859 371.671C223.061 372.827 224.474 373.71 226.097 374.321C227.715 374.909 229.372 375.332 231.067 375.59C232.758 375.825 234.3 375.982 235.693 376.06L243.328 376.532C245.283 376.64 247.485 376.891 249.933 377.286C252.405 377.675 254.836 378.4 257.227 379.458C259.636 380.489 261.759 382.013 263.596 384.03C265.433 386.047 266.693 388.726 267.374 392.066C268.16 395.916 267.861 399.602 266.477 403.122C265.117 406.637 262.698 409.704 259.221 412.322C255.768 414.936 251.304 416.801 245.83 417.918C240.727 418.96 236.14 419.038 232.069 418.153C228.022 417.263 224.63 415.563 221.895 413.053C219.183 410.538 217.29 407.36 216.217 403.52L225.124 401.702C225.905 404.346 227.264 406.388 229.201 407.829C231.157 409.242 233.44 410.129 236.051 410.491C238.68 410.824 241.409 410.702 244.239 410.124C247.533 409.452 250.382 408.315 252.785 406.713C255.184 405.088 256.952 403.157 258.09 400.919C259.224 398.658 259.525 396.229 258.995 393.631C258.512 391.265 257.458 389.474 255.833 388.26C254.208 387.045 252.222 386.194 249.876 385.706C247.529 385.218 245.032 384.882 242.385 384.697L233.106 383.982C227.212 383.517 222.338 382.132 218.485 379.825C214.632 377.519 212.215 373.965 211.235 369.163C210.421 365.173 210.79 361.474 212.341 358.064C213.911 354.627 216.36 351.711 219.689 349.316C223.037 346.894 226.984 345.218 231.53 344.291C236.123 343.353 240.374 343.344 244.282 344.262C248.185 345.157 251.47 346.806 254.135 349.21C256.823 351.609 258.592 354.594 259.442 358.166L251.091 359.87Z" fill="#173911"/>
<path d="M215 278.5C275.444 278.5 324.5 328.165 324.5 389.5C324.5 450.835 275.444 500.5 215 500.5C154.556 500.5 105.5 450.835 105.5 389.5C105.5 328.165 154.556 278.5 215 278.5Z" stroke="#0D1A10" stroke-width="5"/>
<rect x="673.849" y="87.7354" width="293.322" height="580.459" rx="17.5" transform="rotate(18.2528 673.849 87.7354)" fill="#01E573" stroke="#18371F" stroke-width="5"/>
<path d="M669.758 431.039L701.733 345.939L707.185 347.987L675.21 433.088L669.758 431.039ZM710.49 378.364C711.357 374.845 710.722 371.622 708.585 368.695C706.447 365.767 703.318 363.529 699.196 361.981C696.182 360.848 693.361 360.345 690.735 360.47C688.13 360.605 685.875 361.288 683.971 362.519C682.089 363.759 680.74 365.465 679.924 367.637C679.241 369.455 679.086 371.179 679.459 372.812C679.862 374.43 680.589 375.93 681.638 377.31C682.696 378.668 683.874 379.908 685.173 381.028C686.48 382.126 687.702 383.079 688.841 383.886L695.056 388.345C696.654 389.477 698.385 390.861 700.248 392.497C702.134 394.141 703.808 396.047 705.27 398.215C706.762 400.369 707.749 402.788 708.233 405.474C708.716 408.159 708.358 411.097 707.159 414.288C705.777 417.967 703.563 420.929 700.52 423.174C697.498 425.428 693.819 426.739 689.482 427.108C685.168 427.484 680.395 426.69 675.165 424.725C670.29 422.893 666.364 420.52 663.387 417.606C660.432 414.7 658.464 411.457 657.483 407.877C656.524 404.304 656.61 400.607 657.743 396.784L666.253 399.981C665.509 402.635 665.574 405.087 666.448 407.338C667.353 409.575 668.815 411.54 670.833 413.234C672.883 414.915 675.259 416.263 677.963 417.279C681.11 418.461 684.127 419.013 687.014 418.935C689.91 418.834 692.435 418.139 694.589 416.849C696.751 415.537 698.298 413.64 699.231 411.158C700.08 408.897 700.139 406.821 699.409 404.928C698.679 403.035 697.45 401.258 695.722 399.597C693.994 397.936 692.058 396.324 689.914 394.759L682.437 389.218C677.692 385.691 674.302 381.926 672.265 377.923C670.228 373.921 670.072 369.626 671.795 365.039C673.228 361.227 675.507 358.29 678.634 356.227C681.791 354.151 685.416 352.984 689.509 352.727C693.632 352.455 697.866 353.135 702.21 354.767C706.598 356.416 710.202 358.668 713.024 361.524C715.854 364.358 717.758 367.501 718.737 370.954C719.738 374.416 719.648 377.885 718.468 381.361L710.49 378.364ZM729.453 453.469L761.428 368.368L766.88 370.417L734.905 455.517L729.453 453.469ZM770.185 400.793C771.052 397.275 770.417 394.052 768.279 391.124C766.142 388.197 763.013 385.959 758.891 384.41C755.877 383.277 753.056 382.774 750.429 382.9C747.825 383.034 745.57 383.717 743.666 384.949C741.784 386.189 740.434 387.895 739.618 390.067C738.936 391.884 738.781 393.609 739.154 395.241C739.557 396.859 740.284 398.359 741.333 399.739C742.39 401.098 743.569 402.337 744.867 403.457C746.175 404.556 747.397 405.508 748.536 406.315L754.751 410.775C756.349 411.906 758.08 413.29 759.943 414.926C761.829 416.57 763.503 418.476 764.965 420.644C766.457 422.798 767.444 425.218 767.927 427.903C768.411 430.588 768.053 433.527 766.854 436.718C765.471 440.397 763.258 443.359 760.214 445.604C757.193 447.857 753.514 449.168 749.177 449.537C744.863 449.914 740.09 449.12 734.86 447.154C729.985 445.323 726.058 442.95 723.082 440.035C720.127 437.13 718.159 433.887 717.178 430.306C716.218 426.734 716.305 423.036 717.438 419.213L725.948 422.41C725.204 425.064 725.269 427.517 726.143 429.767C727.048 432.004 728.509 433.969 730.528 435.664C732.578 437.344 734.954 438.692 737.658 439.708C740.805 440.891 743.822 441.443 746.709 441.364C749.605 441.263 752.13 440.568 754.283 439.278C756.445 437.966 757.993 436.069 758.925 433.587C759.775 431.327 759.834 429.25 759.104 427.357C758.374 425.464 757.145 423.687 755.417 422.026C753.689 420.365 751.753 418.753 749.609 417.189L742.132 411.648C737.387 408.12 733.997 404.355 731.96 400.353C729.923 396.35 729.767 392.055 731.49 387.468C732.923 383.656 735.202 380.719 738.329 378.657C741.486 376.581 745.111 375.414 749.204 375.156C753.327 374.884 757.561 375.564 761.904 377.197C766.292 378.845 769.897 381.098 772.719 383.953C775.549 386.787 777.453 389.93 778.432 393.383C779.433 396.845 779.343 400.314 778.163 403.791L770.185 400.793Z" fill="#173911"/>
<path d="M782.888 312.689C834.077 344.833 849.21 412.98 816.592 464.923C783.975 516.867 716.02 532.839 664.831 500.696C613.642 468.553 598.509 400.405 631.126 348.462C663.744 296.518 731.699 280.546 782.888 312.689Z" stroke="#0D1A10" stroke-width="5"/>
<rect x="326.9" y="72.2201" width="293.322" height="580.459" rx="17.5" transform="rotate(-1.13213 326.9 72.2201)" fill="#01E573" stroke="#18371F" stroke-width="5"/>
<path d="M436.987 397.42L438.904 306.531L444.726 306.654L442.81 397.543L436.987 397.42ZM457.927 334.211C457.576 330.604 455.907 327.775 452.92 325.723C449.932 323.671 446.237 322.598 441.834 322.505C438.616 322.438 435.788 322.899 433.352 323.889C430.939 324.88 429.039 326.273 427.652 328.067C426.288 329.862 425.581 331.919 425.532 334.238C425.491 336.179 425.918 337.857 426.811 339.273C427.729 340.666 428.912 341.84 430.36 342.794C431.809 343.724 433.331 344.502 434.929 345.128C436.526 345.73 437.996 346.222 439.337 346.606L446.68 348.75C448.563 349.287 450.655 350.018 452.956 350.942C455.281 351.867 457.493 353.11 459.591 354.67C461.713 356.206 463.448 358.161 464.795 360.533C466.142 362.906 466.78 365.797 466.708 369.205C466.625 373.134 465.521 376.663 463.394 379.791C461.292 382.92 458.257 385.377 454.288 387.164C450.343 388.952 445.578 389.787 439.992 389.669C434.785 389.559 430.294 388.624 426.518 386.863C422.767 385.103 419.834 382.697 417.72 379.645C415.629 376.593 414.484 373.076 414.284 369.094L423.373 369.286C423.551 372.036 424.427 374.328 425.998 376.161C427.594 377.97 429.625 379.339 432.092 380.267C434.583 381.172 437.272 381.655 440.16 381.716C443.521 381.787 446.55 381.306 449.248 380.274C451.946 379.218 454.096 377.724 455.7 375.793C457.304 373.837 458.134 371.534 458.19 368.883C458.241 366.469 457.608 364.49 456.291 362.947C454.973 361.404 453.224 360.136 451.043 359.142C448.862 358.149 446.5 357.271 443.959 356.507L435.066 353.762C429.42 352.009 424.972 349.583 421.722 346.483C418.473 343.384 416.899 339.384 417.003 334.485C417.088 330.414 418.264 326.886 420.529 323.903C422.818 320.897 425.85 318.593 429.626 316.991C433.425 315.366 437.644 314.603 442.283 314.701C446.97 314.799 451.118 315.728 454.727 317.485C458.337 319.219 461.177 321.552 463.246 324.484C465.339 327.417 466.406 330.719 466.447 334.391L457.927 334.211ZM500.742 398.764L502.659 307.875L508.481 307.998L506.565 398.887L500.742 398.764ZM521.682 335.555C521.332 331.949 519.663 329.119 516.675 327.067C513.687 325.015 509.992 323.943 505.59 323.85C502.371 323.782 499.543 324.243 497.107 325.234C494.695 326.225 492.795 327.617 491.407 329.411C490.043 331.206 489.337 333.263 489.288 335.583C489.247 337.523 489.673 339.202 490.567 340.618C491.485 342.01 492.668 343.184 494.116 344.138C495.564 345.068 497.087 345.846 498.684 346.472C500.281 347.074 501.751 347.567 503.093 347.95L510.435 350.094C512.318 350.631 514.41 351.362 516.712 352.287C519.036 353.212 521.248 354.454 523.346 356.014C525.469 357.55 527.203 359.505 528.55 361.878C529.897 364.25 530.535 367.141 530.463 370.549C530.38 374.478 529.276 378.007 527.15 381.135C525.047 384.264 522.012 386.722 518.043 388.509C514.099 390.296 509.333 391.131 503.747 391.013C498.54 390.904 494.049 389.968 490.274 388.207C486.522 386.447 483.589 384.041 481.475 380.989C479.385 377.938 478.239 374.421 478.039 370.438L487.128 370.63C487.307 373.381 488.182 375.672 489.754 377.505C491.349 379.315 493.38 380.684 495.847 381.612C498.338 382.517 501.027 383 503.915 383.061C507.276 383.131 510.305 382.651 513.003 381.618C515.701 380.562 517.852 379.068 519.455 377.137C521.059 375.182 521.889 372.879 521.945 370.228C521.996 367.813 521.363 365.835 520.046 364.291C518.729 362.748 516.979 361.48 514.798 360.487C512.617 359.493 510.256 358.615 507.714 357.851L498.821 355.106C493.175 353.353 488.727 350.927 485.478 347.827C482.228 344.728 480.655 340.728 480.758 335.829C480.844 331.758 482.019 328.231 484.284 325.248C486.574 322.241 489.606 319.937 493.381 318.335C497.18 316.711 501.399 315.947 506.039 316.045C510.725 316.144 514.873 317.072 518.483 318.829C522.093 320.563 524.932 322.896 527.002 325.829C529.095 328.762 530.162 332.064 530.203 335.735L521.682 335.555Z" fill="#173911"/>
<path d="M504.425 248.229C563.381 261.56 600.275 320.821 586.747 380.646C573.22 440.47 514.418 478.093 455.463 464.762C396.507 451.431 359.613 392.17 373.14 332.345C386.668 272.52 445.47 234.898 504.425 248.229Z" stroke="#0D1A10" stroke-width="5"/>
</svg>
