<?xml version="1.0" standalone="no"?>
<!DOCTYPE svg PUBLIC "-//W3C//DTD SVG 20010904//EN"
 "http://www.w3.org/TR/2001/REC-SVG-20010904/DTD/svg10.dtd">
<svg version="1.0" xmlns="http://www.w3.org/2000/svg"
 width="512.000000pt" height="512.000000pt" viewBox="0 0 512.000000 512.000000"
 preserveAspectRatio="xMidYMid meet">

<g transform="translate(0.000000,512.000000) scale(0.100000,-0.100000)"
fill="#000000" stroke="none">
<path d="M1115 4654 c-146 -32 -297 -125 -381 -237 -89 -118 -102 -158 -285
-872 -189 -738 -196 -778 -165 -923 32 -150 142 -321 267 -417 79 -60 204
-120 295 -141 105 -24 294 -15 399 19 155 51 306 167 395 302 l46 71 39 -64
c49 -78 170 -194 256 -245 105 -62 205 -89 346 -95 194 -7 339 38 492 154 55
41 180 181 181 202 0 4 7 16 15 26 15 19 15 19 29 1 14 -19 15 -19 67 9 83 44
83 44 55 108 -56 126 -56 132 -56 1083 l0 875 193 0 c218 0 291 -12 388 -60
84 -43 176 -136 217 -220 21 -43 62 -184 121 -415 243 -951 251 -986 251
-1059 0 -111 -30 -198 -103 -305 l-30 -44 54 -48 c30 -27 59 -49 66 -49 15 0
96 121 122 184 36 82 52 165 52 262 1 85 -8 126 -90 451 -251 995 -258 1019
-301 1102 -79 151 -216 269 -380 326 l-85 30 -1200 2 c-1037 1 -1210 0 -1270
-13z m485 -1036 c0 -752 -3 -903 -15 -956 -50 -211 -228 -388 -443 -438 -125
-30 -286 -8 -409 55 -112 56 -224 187 -273 316 -18 47 -23 81 -24 155 0 91 8
124 168 750 122 475 177 675 202 727 63 133 195 235 344 267 42 9 133 15 258
15 l192 1 0 -892z m1348 -15 c-4 -1014 2 -938 -76 -1088 -94 -180 -302 -305
-509 -305 -98 0 -163 15 -262 61 -154 71 -276 223 -316 392 -12 52 -15 204
-15 955 l0 892 590 0 591 0 -3 -907z"/>
<path d="M3488 2540 c-347 -63 -607 -368 -608 -710 0 -186 113 -466 338 -840
85 -142 247 -387 332 -502 l57 -78 90 128 c282 396 497 779 590 1047 37 108
38 113 37 250 0 126 -3 147 -27 215 -86 237 -272 412 -506 475 -68 19 -239 27
-303 15z m296 -189 c232 -83 381 -289 380 -526 -1 -117 -35 -224 -143 -441
-123 -246 -403 -697 -421 -678 -4 5 -44 63 -87 129 -249 376 -418 709 -459
905 -54 263 135 547 416 625 78 21 236 15 314 -14z"/>
<path d="M3483 2161 c-65 -24 -97 -46 -152 -106 -176 -190 -111 -502 128 -613
47 -23 70 -27 146 -27 82 0 97 3 156 32 80 39 150 111 187 191 23 50 27 70 27
157 0 91 -3 106 -31 165 -37 80 -105 149 -181 186 -76 38 -202 44 -280 15z
m183 -156 c52 -15 101 -57 126 -110 52 -105 8 -244 -94 -296 -33 -17 -54 -20
-104 -17 -118 7 -194 91 -194 212 1 105 55 184 147 213 51 16 61 15 119 -2z"/>
<path d="M1478 1886 c-66 -18 -151 -77 -188 -130 -61 -89 -60 -80 -60 -639 l0
-510 -66 6 c-163 15 -293 135 -324 296 -6 31 -10 241 -10 502 l0 449 -80 0
-80 0 0 -462 c0 -490 4 -539 49 -640 65 -145 214 -265 369 -297 37 -8 391 -11
1162 -11 l1110 0 0 80 0 80 -985 0 -985 0 0 490 c0 390 3 497 14 523 15 37 76
94 109 102 13 4 115 5 228 3 l206 -3 35 -27 c68 -52 68 -50 68 -501 0 -253 4
-408 10 -412 5 -3 44 -3 85 1 l76 7 -3 421 -3 421 -26 56 c-37 79 -90 133
-167 171 l-66 33 -216 2 c-153 2 -229 -1 -262 -11z"/>
</g>
</svg>
